<mxfile host="app.diagrams.net" modified="2023-09-21T11:04:42.476Z" agent="Mozilla/5.0 (Macintosh; Intel Mac OS X 10_15_7) AppleWebKit/537.36 (KHTML, like Gecko) Chrome/116.0.0.0 Safari/537.36" etag="wWKW6KV7pY-Z6q8fqnpq" version="21.7.5" type="device" pages="2">
  <diagram name="Page-1" id="VXOpUH-pqVzwKJoKNKM3">
    <mxGraphModel dx="1026" dy="654" grid="1" gridSize="10" guides="1" tooltips="1" connect="1" arrows="1" fold="1" page="1" pageScale="1" pageWidth="1169" pageHeight="1654" math="0" shadow="0">
      <root>
        <mxCell id="0" />
        <mxCell id="1" parent="0" />
        <mxCell id="2rEFkb6Ng1woVHnfFwh1-9" style="edgeStyle=orthogonalEdgeStyle;rounded=0;orthogonalLoop=1;jettySize=auto;html=1;exitX=1;exitY=0.5;exitDx=0;exitDy=0;entryX=0;entryY=0.5;entryDx=0;entryDy=0;startArrow=classic;startFill=1;fillColor=#fff2cc;strokeColor=#d6b656;" parent="1" source="2rEFkb6Ng1woVHnfFwh1-1" target="2rEFkb6Ng1woVHnfFwh1-2" edge="1">
          <mxGeometry relative="1" as="geometry" />
        </mxCell>
        <mxCell id="2rEFkb6Ng1woVHnfFwh1-12" style="rounded=0;orthogonalLoop=1;jettySize=auto;html=1;exitX=0.75;exitY=1;exitDx=0;exitDy=0;entryX=0.5;entryY=0;entryDx=0;entryDy=0;startArrow=classic;startFill=1;fillColor=#fff2cc;strokeColor=#d6b656;" parent="1" source="2rEFkb6Ng1woVHnfFwh1-1" target="2rEFkb6Ng1woVHnfFwh1-11" edge="1">
          <mxGeometry relative="1" as="geometry" />
        </mxCell>
        <mxCell id="2rEFkb6Ng1woVHnfFwh1-1" value="SMTP Server 1&lt;br&gt;(requires implementation)" style="rounded=1;whiteSpace=wrap;html=1;fillColor=#fff2cc;strokeColor=#d6b656;" parent="1" vertex="1">
          <mxGeometry x="340" y="260" width="180" height="60" as="geometry" />
        </mxCell>
        <mxCell id="2rEFkb6Ng1woVHnfFwh1-13" style="rounded=0;orthogonalLoop=1;jettySize=auto;html=1;exitX=0.5;exitY=1;exitDx=0;exitDy=0;entryX=0.5;entryY=0;entryDx=0;entryDy=0;startArrow=classic;startFill=1;fillColor=#d5e8d4;strokeColor=#82b366;" parent="1" source="2rEFkb6Ng1woVHnfFwh1-2" target="2rEFkb6Ng1woVHnfFwh1-11" edge="1">
          <mxGeometry relative="1" as="geometry" />
        </mxCell>
        <mxCell id="2rEFkb6Ng1woVHnfFwh1-2" value="SMTP Server 2&lt;br&gt;(evaluation server)" style="rounded=1;whiteSpace=wrap;html=1;fillColor=#dae8fc;strokeColor=#6c8ebf;" parent="1" vertex="1">
          <mxGeometry x="610" y="260" width="180" height="60" as="geometry" />
        </mxCell>
        <mxCell id="2rEFkb6Ng1woVHnfFwh1-4" value="Agent&lt;br&gt;(provided testbench)" style="ellipse;whiteSpace=wrap;html=1;fillColor=#d5e8d4;strokeColor=#82b366;" parent="1" vertex="1">
          <mxGeometry x="370" y="400" width="120" height="80" as="geometry" />
        </mxCell>
        <mxCell id="2rEFkb6Ng1woVHnfFwh1-5" value="" style="endArrow=classic;html=1;rounded=0;exitX=0.5;exitY=0;exitDx=0;exitDy=0;entryX=0.5;entryY=1;entryDx=0;entryDy=0;fillColor=#fff2cc;strokeColor=#d6b656;" parent="1" edge="1">
          <mxGeometry width="50" height="50" relative="1" as="geometry">
            <mxPoint x="424" y="400" as="sourcePoint" />
            <mxPoint x="424" y="320" as="targetPoint" />
          </mxGeometry>
        </mxCell>
        <mxCell id="2rEFkb6Ng1woVHnfFwh1-6" value="SMTP&lt;br&gt;Protocol" style="text;html=1;strokeColor=none;fillColor=none;align=center;verticalAlign=middle;whiteSpace=wrap;rounded=0;" parent="1" vertex="1">
          <mxGeometry x="354" y="350" width="60" height="30" as="geometry" />
        </mxCell>
        <mxCell id="2rEFkb6Ng1woVHnfFwh1-7" value="" style="endArrow=classic;html=1;rounded=0;exitX=0.5;exitY=1;exitDx=0;exitDy=0;entryX=0.5;entryY=0;entryDx=0;entryDy=0;fillColor=#fff2cc;strokeColor=#d6b656;" parent="1" edge="1">
          <mxGeometry width="50" height="50" relative="1" as="geometry">
            <mxPoint x="435" y="322" as="sourcePoint" />
            <mxPoint x="435" y="402" as="targetPoint" />
          </mxGeometry>
        </mxCell>
        <mxCell id="2rEFkb6Ng1woVHnfFwh1-8" value="POP3&lt;br&gt;Protocol" style="text;html=1;strokeColor=none;fillColor=none;align=center;verticalAlign=middle;whiteSpace=wrap;rounded=0;" parent="1" vertex="1">
          <mxGeometry x="440" y="350" width="60" height="30" as="geometry" />
        </mxCell>
        <mxCell id="2rEFkb6Ng1woVHnfFwh1-10" value="SMTP&lt;br&gt;Protocol" style="text;html=1;strokeColor=none;fillColor=none;align=center;verticalAlign=middle;whiteSpace=wrap;rounded=0;" parent="1" vertex="1">
          <mxGeometry x="530" y="300" width="60" height="30" as="geometry" />
        </mxCell>
        <mxCell id="2rEFkb6Ng1woVHnfFwh1-11" value="Pseudo DNS Server&lt;br&gt;(provided)" style="rounded=1;whiteSpace=wrap;html=1;fillColor=#d5e8d4;strokeColor=#82b366;" parent="1" vertex="1">
          <mxGeometry x="560" y="470" width="120" height="60" as="geometry" />
        </mxCell>
        <mxCell id="2rEFkb6Ng1woVHnfFwh1-14" value="Pseudo&lt;br&gt;DNS&lt;br&gt;query" style="text;html=1;strokeColor=none;fillColor=none;align=center;verticalAlign=middle;whiteSpace=wrap;rounded=0;" parent="1" vertex="1">
          <mxGeometry x="585" y="410" width="60" height="30" as="geometry" />
        </mxCell>
        <mxCell id="2rEFkb6Ng1woVHnfFwh1-15" style="rounded=0;orthogonalLoop=1;jettySize=auto;html=1;exitX=1;exitY=0.5;exitDx=0;exitDy=0;entryX=0.5;entryY=0;entryDx=0;entryDy=0;startArrow=classic;startFill=1;fillColor=#d5e8d4;strokeColor=#82b366;" parent="1" source="2rEFkb6Ng1woVHnfFwh1-4" target="2rEFkb6Ng1woVHnfFwh1-11" edge="1">
          <mxGeometry relative="1" as="geometry">
            <mxPoint x="485" y="330" as="sourcePoint" />
            <mxPoint x="620" y="440" as="targetPoint" />
          </mxGeometry>
        </mxCell>
      </root>
    </mxGraphModel>
  </diagram>
  <diagram id="_EzpIEguWkp0rXEgJxmu" name="Page-2">
    <mxGraphModel dx="1026" dy="654" grid="1" gridSize="10" guides="1" tooltips="1" connect="1" arrows="1" fold="1" page="1" pageScale="1" pageWidth="1169" pageHeight="1654" math="0" shadow="0">
      <root>
        <mxCell id="0" />
        <mxCell id="1" parent="0" />
        <mxCell id="cf-H83--NGUpBC7-rnm0-1" style="edgeStyle=orthogonalEdgeStyle;rounded=0;orthogonalLoop=1;jettySize=auto;html=1;exitX=1;exitY=0.5;exitDx=0;exitDy=0;entryX=0;entryY=0.5;entryDx=0;entryDy=0;startArrow=classic;startFill=1;fillColor=#fff2cc;strokeColor=#d6b656;" parent="1" source="cf-H83--NGUpBC7-rnm0-3" edge="1">
          <mxGeometry relative="1" as="geometry">
            <mxPoint x="610" y="290" as="targetPoint" />
          </mxGeometry>
        </mxCell>
        <mxCell id="cf-H83--NGUpBC7-rnm0-2" style="rounded=0;orthogonalLoop=1;jettySize=auto;html=1;exitX=0.75;exitY=1;exitDx=0;exitDy=0;entryX=0.5;entryY=0;entryDx=0;entryDy=0;startArrow=classic;startFill=1;fillColor=#fff2cc;strokeColor=#d6b656;" parent="1" source="cf-H83--NGUpBC7-rnm0-3" target="cf-H83--NGUpBC7-rnm0-12" edge="1">
          <mxGeometry relative="1" as="geometry" />
        </mxCell>
        <mxCell id="cf-H83--NGUpBC7-rnm0-3" value="SMTP Server 1&lt;br&gt;(your implementation)" style="rounded=1;whiteSpace=wrap;html=1;fillColor=#fff2cc;strokeColor=#d6b656;" parent="1" vertex="1">
          <mxGeometry x="340" y="260" width="180" height="60" as="geometry" />
        </mxCell>
        <mxCell id="cf-H83--NGUpBC7-rnm0-4" style="rounded=0;orthogonalLoop=1;jettySize=auto;html=1;exitX=0.5;exitY=1;exitDx=0;exitDy=0;entryX=0.5;entryY=0;entryDx=0;entryDy=0;startArrow=classic;startFill=1;fillColor=#fff2cc;strokeColor=#d6b656;" parent="1" target="cf-H83--NGUpBC7-rnm0-12" edge="1">
          <mxGeometry relative="1" as="geometry">
            <mxPoint x="700" y="320" as="sourcePoint" />
          </mxGeometry>
        </mxCell>
        <mxCell id="cf-H83--NGUpBC7-rnm0-6" value="Agent&lt;br&gt;(provided testbench)" style="ellipse;whiteSpace=wrap;html=1;fillColor=#d5e8d4;strokeColor=#82b366;" parent="1" vertex="1">
          <mxGeometry x="370" y="400" width="120" height="80" as="geometry" />
        </mxCell>
        <mxCell id="cf-H83--NGUpBC7-rnm0-7" value="" style="endArrow=classic;html=1;rounded=0;exitX=0.5;exitY=0;exitDx=0;exitDy=0;entryX=0.5;entryY=1;entryDx=0;entryDy=0;fillColor=#fff2cc;strokeColor=#d6b656;" parent="1" edge="1">
          <mxGeometry width="50" height="50" relative="1" as="geometry">
            <mxPoint x="424" y="400" as="sourcePoint" />
            <mxPoint x="424" y="320" as="targetPoint" />
          </mxGeometry>
        </mxCell>
        <mxCell id="cf-H83--NGUpBC7-rnm0-8" value="SMTP&lt;br&gt;Protocol" style="text;html=1;strokeColor=none;fillColor=none;align=center;verticalAlign=middle;whiteSpace=wrap;rounded=0;" parent="1" vertex="1">
          <mxGeometry x="354" y="350" width="60" height="30" as="geometry" />
        </mxCell>
        <mxCell id="cf-H83--NGUpBC7-rnm0-9" value="" style="endArrow=classic;html=1;rounded=0;exitX=0.5;exitY=1;exitDx=0;exitDy=0;entryX=0.5;entryY=0;entryDx=0;entryDy=0;fillColor=#fff2cc;strokeColor=#d6b656;" parent="1" edge="1">
          <mxGeometry width="50" height="50" relative="1" as="geometry">
            <mxPoint x="435" y="322" as="sourcePoint" />
            <mxPoint x="435" y="402" as="targetPoint" />
          </mxGeometry>
        </mxCell>
        <mxCell id="cf-H83--NGUpBC7-rnm0-10" value="POP3&lt;br&gt;Protocol" style="text;html=1;strokeColor=none;fillColor=none;align=center;verticalAlign=middle;whiteSpace=wrap;rounded=0;" parent="1" vertex="1">
          <mxGeometry x="440" y="350" width="60" height="30" as="geometry" />
        </mxCell>
        <mxCell id="cf-H83--NGUpBC7-rnm0-11" value="SMTP&lt;br&gt;Protocol" style="text;html=1;strokeColor=none;fillColor=none;align=center;verticalAlign=middle;whiteSpace=wrap;rounded=0;" parent="1" vertex="1">
          <mxGeometry x="530" y="300" width="60" height="30" as="geometry" />
        </mxCell>
        <mxCell id="cf-H83--NGUpBC7-rnm0-12" value="Psuedo DNS Server&lt;br&gt;(provided)" style="rounded=1;whiteSpace=wrap;html=1;fillColor=#d5e8d4;strokeColor=#82b366;" parent="1" vertex="1">
          <mxGeometry x="560" y="470" width="120" height="60" as="geometry" />
        </mxCell>
        <mxCell id="cf-H83--NGUpBC7-rnm0-13" value="Pseudo&lt;br&gt;DNS&lt;br&gt;query" style="text;html=1;strokeColor=none;fillColor=none;align=center;verticalAlign=middle;whiteSpace=wrap;rounded=0;" parent="1" vertex="1">
          <mxGeometry x="585" y="410" width="60" height="30" as="geometry" />
        </mxCell>
        <mxCell id="cf-H83--NGUpBC7-rnm0-14" style="rounded=0;orthogonalLoop=1;jettySize=auto;html=1;exitX=1;exitY=0.5;exitDx=0;exitDy=0;entryX=0.5;entryY=0;entryDx=0;entryDy=0;startArrow=classic;startFill=1;fillColor=#d5e8d4;strokeColor=#82b366;" parent="1" source="cf-H83--NGUpBC7-rnm0-6" target="cf-H83--NGUpBC7-rnm0-12" edge="1">
          <mxGeometry relative="1" as="geometry">
            <mxPoint x="485" y="330" as="sourcePoint" />
            <mxPoint x="620" y="440" as="targetPoint" />
          </mxGeometry>
        </mxCell>
        <mxCell id="cf-H83--NGUpBC7-rnm0-15" value="SMTP Server 2&lt;br&gt;(your implementation)" style="rounded=1;whiteSpace=wrap;html=1;fillColor=#fff2cc;strokeColor=#d6b656;" parent="1" vertex="1">
          <mxGeometry x="610" y="260" width="180" height="60" as="geometry" />
        </mxCell>
      </root>
    </mxGraphModel>
  </diagram>
</mxfile>
